<?xml version="1.0" encoding="UTF-8" standalone="no"?>
<svg
   xmlns:dc="http://purl.org/dc/elements/1.1/"
   xmlns:cc="http://creativecommons.org/ns#"
   xmlns:rdf="http://www.w3.org/1999/02/22-rdf-syntax-ns#"
   xmlns:svg="http://www.w3.org/2000/svg"
   xmlns="http://www.w3.org/2000/svg"
   xmlns:sodipodi="http://sodipodi.sourceforge.net/DTD/sodipodi-0.dtd"
   xmlns:inkscape="http://www.inkscape.org/namespaces/inkscape"
   id="svg"
   width="317.64581"
   height="119.75227"
   viewBox="0 0 317.64581 119.75228"
   version="1.1"
   sodipodi:docname="payCity Logo_clean.svg"
   inkscape:version="0.92.3 (2405546, 2018-03-11)">
  <metadata
     id="metadata4542">
    <rdf:RDF>
      <cc:Work
         rdf:about="">
        <dc:format>image/svg+xml</dc:format>
        <dc:type
           rdf:resource="http://purl.org/dc/dcmitype/StillImage" />
        <dc:title></dc:title>
      </cc:Work>
    </rdf:RDF>
  </metadata>
  <defs
     id="defs4540" />
  <sodipodi:namedview
     pagecolor="#ffffff"
     bordercolor="#666666"
     borderopacity="1"
     objecttolerance="10"
     gridtolerance="10"
     guidetolerance="10"
     inkscape:pageopacity="0"
     inkscape:pageshadow="2"
     inkscape:window-width="1600"
     inkscape:window-height="837"
     id="namedview4538"
     showgrid="false"
     inkscape:zoom="2.2263188"
     inkscape:cx="133.07338"
     inkscape:cy="-30.271167"
     inkscape:window-x="-8"
     inkscape:window-y="-8"
     inkscape:window-maximized="1"
     inkscape:current-layer="svg"
     fit-margin-top="0"
     fit-margin-left="0"
     fit-margin-right="0"
     fit-margin-bottom="0" />
  <g
     id="svgg"
     transform="translate(-40.038,-65.130978)">
    <path
       id="path0"
       d="m 237.412,65.372 c -6.27,0.731 -10.374,1.868 -14.905,4.133 -3.028,1.513 -7.545,4.575 -7.31,4.955 0.058,0.095 -0.01,0.128 -0.151,0.074 -0.293,-0.113 -4.429,4.049 -5.787,5.822 -7.452,9.733 -10.691,23.233 -8.41,35.052 2.991,15.496 16.138,23.436 34.551,20.868 3.669,-0.512 10.149,-2.203 10.752,-2.806 0.097,-0.097 -0.836,-6.107 -1.016,-6.546 -0.117,-0.287 -0.224,-0.275 -1.193,0.137 -8.32,3.536 -20.001,3.108 -26.343,-0.965 -12.196,-7.831 -11.041,-33.255 2.073,-45.645 8.144,-7.695 21.31,-10.053 32.233,-5.776 0.803,0.315 1.488,0.54 1.522,0.501 0.058,-0.067 1.506,-3.615 2.34,-5.733 l 0.384,-0.975 -1.368,-0.658 c -3.777,-1.816 -12.362,-3.021 -17.372,-2.438 m 62.822,8.712 c -0.257,0.08 -1.228,0.37 -2.156,0.645 -0.928,0.274 -2.321,0.69 -3.094,0.924 -0.774,0.234 -1.789,0.536 -2.256,0.671 l -0.85,0.246 -0.821,4.425 c -0.452,2.433 -0.859,4.53 -0.905,4.659 -0.064,0.176 -0.963,0.234 -3.627,0.234 -1.949,0 -3.543,0.025 -3.543,0.054 0,0.03 -0.253,1.44 -0.563,3.134 -0.309,1.694 -0.562,3.147 -0.562,3.228 0,0.081 1.561,0.148 3.469,0.148 3.055,0 3.469,0.036 3.469,0.3 0,0.275 -1.898,10.315 -4.038,21.36 -1.422,7.336 -1.592,8.486 -1.711,11.533 -0.146,3.77 0.559,6.596 1.91,7.659 0.217,0.171 0.409,0.375 0.426,0.455 0.135,0.615 2.382,1.939 4.257,2.508 2.152,0.653 8.689,0.383 9.961,-0.412 0.367,-0.228 0.408,-0.471 0.528,-3.119 0.071,-1.58 0.176,-3.032 0.233,-3.228 0.087,-0.299 0.033,-0.335 -0.34,-0.229 -2.315,0.662 -5.972,0.224 -7.066,-0.845 -1.325,-1.296 -1.67,-4.597 -0.909,-8.697 0.173,-0.928 1.394,-7.426 2.715,-14.439 l 2.401,-12.752 6.001,-0.05 6.001,-0.049 0.601,-3.139 c 0.331,-1.726 0.6,-3.202 0.599,-3.279 -0.002,-0.077 -2.661,-0.141 -5.91,-0.141 -4.604,0 -5.906,-0.051 -5.901,-0.234 0.003,-0.129 0.501,-2.808 1.105,-5.954 0.605,-3.146 1.087,-5.729 1.072,-5.741 -0.015,-0.012 -0.238,0.045 -0.496,0.125 M 75.105,84.89 c -5.403,0.673 -10.741,4.017 -14.59,9.14 -1.241,1.651 -1.248,1.6 -0.517,-3.466 0.316,-2.186 0.574,-4.169 0.574,-4.406 v -0.43 l -3.805,-0.019 -3.806,-0.019 -0.615,4.365 c -0.907,6.445 -1.664,10.783 -4.065,23.306 -0.475,2.476 -0.979,5.134 -1.12,5.908 -0.266,1.454 -0.699,3.727 -1.963,10.314 -0.405,2.114 -1.672,8.781 -2.815,14.815 -1.142,6.033 -2.122,11.119 -2.178,11.302 -0.095,0.311 0.159,0.328 4.171,0.281 l 4.271,-0.05 0.156,-0.751 c 0.086,-0.412 0.538,-2.817 1.005,-5.344 0.466,-2.527 1.016,-5.481 1.22,-6.564 0.205,-1.083 0.62,-3.319 0.923,-4.969 0.303,-1.65 0.594,-3.186 0.648,-3.412 l 0.099,-0.412 1.186,0.555 c 3.782,1.77 10.597,2.265 15.418,1.12 13.27,-3.15 23.35,-17.479 23.356,-33.2 C 92.663,90.715 85.717,83.567 75.105,84.89 m 54.947,-0.019 c -0.31,0.044 -1.196,0.169 -1.969,0.279 -16.161,2.301 -28.35,16.561 -29.003,33.931 -0.294,7.823 2.626,13.747 8.066,16.366 4.859,2.339 12.515,1.412 16.967,-2.054 3.378,-2.629 6.14,-5.951 7.998,-9.617 0.523,-1.033 0.887,-1.24 0.752,-0.429 -0.297,1.776 -1.028,9.707 -1.029,11.158 l -0.001,1.079 h 3.938 3.938 l 0.003,-2.485 c 0.005,-4.385 0.503,-10.318 1.333,-15.893 0.362,-2.431 1.366,-7.669 4.391,-22.892 1.727,-8.693 1.733,-7.767 -0.054,-8.146 -0.799,-0.169 -1.575,-0.347 -1.723,-0.395 -1.832,-0.593 -11.319,-1.221 -13.607,-0.902 m 24.872,2.658 c 0.366,1.657 1.455,6.72 1.966,9.142 0.907,4.302 2.555,11.995 2.792,13.034 0.235,1.031 2.14,9.964 4.396,20.611 0.82,3.869 0.822,3.857 -0.991,6.768 -3.979,6.387 -9.523,11.091 -15.919,13.508 -1.562,0.59 -1.632,0.64 -1.521,1.103 0.1,0.414 1.078,3.74 1.785,6.064 0.254,0.837 0.334,0.845 2.185,0.211 9.39,-3.215 17.42,-11.622 25.981,-27.201 1.554,-2.827 22.245,-44.494 22.245,-44.796 0,-0.05 -1.998,-0.069 -4.44,-0.041 l -4.441,0.05 -3.482,7.521 c -1.916,4.137 -3.71,8.019 -3.987,8.627 -1.277,2.796 -3.836,8.354 -4.697,10.2 -1.478,3.169 -2.732,5.98 -3.933,8.814 -1.955,4.615 -1.989,4.688 -2.177,4.688 -0.095,0 -0.231,-0.511 -0.302,-1.135 -0.194,-1.718 -0.92,-5.911 -2.352,-13.586 -1.603,-8.594 -3.663,-19.757 -4.152,-22.503 -0.202,-1.135 -0.413,-2.211 -0.467,-2.391 -0.092,-0.301 -0.472,-0.329 -4.476,-0.329 h -4.376 l 0.363,1.641 M 264.72,86.217 c -0.053,0.18 -0.779,3.914 -1.613,8.298 -0.835,4.383 -1.808,9.447 -2.163,11.252 -0.355,1.804 -1.368,7.079 -2.251,11.72 -0.883,4.641 -2.024,10.584 -2.535,13.205 -0.512,2.622 -0.931,4.795 -0.931,4.829 0,0.035 1.893,0.063 4.207,0.063 4.641,0 4.255,0.104 4.493,-1.219 0.056,-0.31 0.479,-2.546 0.941,-4.97 0.462,-2.424 0.925,-4.871 1.028,-5.438 0.103,-0.567 1.249,-6.601 2.546,-13.408 1.297,-6.808 2.573,-13.517 2.835,-14.909 0.263,-1.392 0.767,-4.002 1.122,-5.799 0.354,-1.797 0.644,-3.422 0.644,-3.61 0,-0.518 -8.171,-0.532 -8.323,-0.014 m 49.579,-0.256 c 0,0.039 0.629,3.014 1.398,6.61 0.768,3.596 2.207,10.336 3.197,14.977 0.99,4.641 2.39,11.181 3.112,14.534 0.721,3.352 1.575,7.368 1.896,8.926 l 0.585,2.831 -0.572,1.223 c -0.512,1.096 -2.242,3.793 -3.217,5.017 -0.203,0.255 -0.327,0.531 -0.276,0.614 0.052,0.083 0.02,0.128 -0.071,0.099 -0.09,-0.028 -0.737,0.605 -1.437,1.407 -0.7,0.802 -1.934,2.039 -2.74,2.751 -0.807,0.711 -1.412,1.355 -1.343,1.431 0.068,0.077 0.033,0.088 -0.078,0.024 -0.111,-0.063 -0.491,0.118 -0.844,0.403 -1.607,1.295 -3.984,2.595 -6.736,3.683 -0.98,0.388 -1.815,0.734 -1.855,0.771 -0.041,0.036 0.381,1.67 0.937,3.63 1.17,4.121 0.869,3.872 3.505,2.896 7.876,-2.918 14.909,-9.545 21.734,-20.481 0.857,-1.372 1.558,-2.534 1.558,-2.582 0,-0.047 0.198,-0.401 0.44,-0.786 1.641,-2.608 6.964,-13.181 21.169,-42.05 1.548,-3.145 2.853,-5.784 2.899,-5.863 0.047,-0.08 -1.95,-0.122 -4.436,-0.094 l -4.521,0.05 -0.906,1.969 c -0.497,1.083 -1.096,2.391 -1.33,2.907 -0.75,1.655 -1.524,3.346 -2.06,4.501 -0.287,0.618 -2.001,4.332 -3.808,8.251 -1.807,3.919 -3.577,7.759 -3.934,8.533 -1.501,3.25 -4.092,9.074 -5.028,11.298 -1.093,2.598 -1.212,2.744 -1.37,1.688 -0.467,-3.118 -1.13,-6.881 -2.65,-15.049 -2.863,-15.393 -4.403,-23.803 -4.404,-24.051 0,-0.077 -1.983,-0.141 -4.407,-0.141 -2.424,0 -4.407,0.033 -4.407,0.073 m -178.611,5.831 c 1.832,0.35 1.726,0.132 1.256,2.588 -3.109,16.249 -3.248,16.857 -4.636,20.384 -7.071,17.969 -24.479,20.811 -24.479,3.997 0,-16.412 13.704,-29.678 27.859,-26.969 m -58.155,0.483 c 7.985,2.466 8.588,17.491 1.139,28.4 -0.493,0.722 -0.899,1.415 -0.903,1.539 -0.004,0.124 -0.068,0.188 -0.143,0.142 -0.074,-0.046 -0.279,0.135 -0.454,0.402 -4.525,6.907 -15.464,9.559 -21.999,5.335 l -1.108,-0.716 0.713,-3.82 c 0.392,-2.101 0.936,-5.043 1.209,-6.539 1.245,-6.825 2.183,-10.032 4.004,-13.689 3.253,-6.535 7.866,-10.575 13.145,-11.514 0.869,-0.155 3.195,0.089 4.397,0.46"
       inkscape:connector-curvature="0"
       style="fill:#56565c;fill-rule:evenodd;stroke:none" />
    <path
       id="path2"
       d="m 212.559,76.559 -1.12,1.172 1.172,-1.119 c 0.645,-0.616 1.172,-1.143 1.172,-1.172 0,-0.139 -0.185,0.03 -1.224,1.119 M 73.936,91.836 c 0.285,0.044 0.707,0.042 0.938,-0.002 0.23,-0.045 -0.003,-0.08 -0.519,-0.079 -0.515,0.002 -0.704,0.038 -0.419,0.081 m 36.601,1.6 -0.551,0.61 0.609,-0.551 c 0.336,-0.303 0.61,-0.577 0.61,-0.609 0,-0.145 -0.155,-0.018 -0.668,0.55 m -45.846,3.095 -1.025,1.078 1.078,-1.025 c 1.002,-0.952 1.165,-1.132 1.025,-1.132 -0.029,0 -0.514,0.486 -1.078,1.079 m 51.567,1.687 -0.646,0.704 0.703,-0.647 c 0.655,-0.601 0.79,-0.76 0.646,-0.76 -0.031,0 -0.347,0.317 -0.703,0.703 m -23.571,3.517 c 0.002,0.412 0.04,0.559 0.085,0.326 0.045,-0.234 0.043,-0.571 -0.004,-0.75 -0.047,-0.18 -0.083,0.011 -0.081,0.424 m -8.796,1.781 c 0,0.877 0.032,1.236 0.072,0.797 0.039,-0.438 0.039,-1.155 0,-1.594 -0.04,-0.438 -0.072,-0.08 -0.072,0.797 m 8.8,0.375 c 0,0.464 0.036,0.654 0.081,0.422 0.045,-0.232 0.045,-0.612 0,-0.844 -0.045,-0.232 -0.081,-0.042 -0.081,0.422 m 116.448,1.125 c 0,0.361 0.038,0.509 0.085,0.329 0.048,-0.181 0.048,-0.476 0,-0.657 -0.047,-0.18 -0.085,-0.033 -0.085,0.328 m -134.041,19.925 -0.93,0.985 0.984,-0.931 c 0.542,-0.511 0.985,-0.955 0.985,-0.984 0,-0.14 -0.174,0.016 -1.039,0.93 m 207.747,2.016 c 0,0.464 0.037,0.654 0.082,0.422 0.044,-0.232 0.044,-0.612 0,-0.844 -0.045,-0.232 -0.082,-0.042 -0.082,0.422 m -143.092,3.188 c 0,0.361 0.038,0.509 0.086,0.329 0.047,-0.181 0.047,-0.476 0,-0.657 -0.048,-0.18 -0.086,-0.033 -0.086,0.328 m -23.907,-0.242 c 0.232,0.044 0.612,0.044 0.844,0 0.232,-0.045 0.042,-0.082 -0.422,-0.082 -0.464,0 -0.654,0.037 -0.422,0.082 m 17.909,5.821 c 1.109,0.033 2.923,0.033 4.032,0 1.109,-0.034 0.202,-0.061 -2.016,-0.061 -2.217,0 -3.124,0.027 -2.016,0.061 m 123.593,0 c 1.217,0.033 3.158,0.032 4.313,0 1.154,-0.033 0.158,-0.06 -2.214,-0.06 -2.372,0 -3.317,0.027 -2.099,0.06 M 61.84,136.841 c 0.233,0.045 0.571,0.044 0.75,-0.003 0.179,-0.047 -0.011,-0.084 -0.424,-0.082 -0.413,0.002 -0.559,0.041 -0.326,0.085 m 258.92,13.979 -0.741,0.797 0.797,-0.741 c 0.741,-0.689 0.883,-0.853 0.741,-0.853 -0.031,0 -0.389,0.359 -0.797,0.797 m -276.409,5.204 -4.313,0.105 4.255,0.041 c 2.68,0.027 4.298,-0.027 4.371,-0.146 0.064,-0.103 0.09,-0.168 0.058,-0.146 -0.032,0.023 -1.999,0.089 -4.371,0.146 m 207.975,7.548 c -0.042,0.129 -0.257,1.205 -0.476,2.391 -0.22,1.187 -0.481,2.537 -0.58,3.001 l -0.179,0.844 h -2.208 c -5.131,0 -8.848,3.952 -8.844,9.403 0.003,5.229 4.592,7.404 8.215,3.894 l 1.022,-0.99 -0.1,1.102 -0.099,1.101 1.95,0.058 1.951,0.059 -0.001,-0.69 c 0,-1.383 0.354,-3.513 2.069,-12.437 0.496,-2.582 1.491,-7.86 1.493,-7.923 0.006,-0.196 -4.148,-0.011 -4.213,0.187 m 26.861,0.435 c -1.172,0.635 -1.456,2.453 -0.537,3.437 1.298,1.39 3.957,0.247 3.957,-1.701 0,-1.633 -1.866,-2.58 -3.42,-1.736 m 18.326,-0.085 c -1.243,0.605 -1.609,2.565 -0.66,3.535 1.333,1.364 3.939,0.278 3.943,-1.644 0.003,-1.687 -1.693,-2.664 -3.283,-1.891 m -8.968,2.682 c -2.139,0.609 -2.251,0.695 -2.455,1.891 -0.239,1.403 -0.242,1.407 -1.224,1.407 h -0.904 l -0.226,1.265 c -0.123,0.697 -0.265,1.414 -0.315,1.594 -0.077,0.282 0.047,0.329 0.864,0.329 0.893,0 0.948,0.027 0.86,0.421 -2.059,9.194 -1.636,11.21 2.35,11.203 2.363,-0.004 2.552,-0.087 2.694,-1.191 0.068,-0.53 0.173,-1.28 0.233,-1.666 l 0.109,-0.704 h -0.957 c -1.226,0 -1.632,-0.489 -1.438,-1.728 0.128,-0.814 0.956,-5.139 1.133,-5.914 0.09,-0.396 0.192,-0.421 1.659,-0.421 h 1.562 l 0.207,-1.173 c 0.114,-0.644 0.263,-1.361 0.331,-1.594 0.122,-0.414 0.096,-0.421 -1.504,-0.421 -1.463,0 -1.619,-0.034 -1.532,-0.329 0.154,-0.521 0.687,-3.478 0.633,-3.514 -0.026,-0.018 -0.962,0.227 -2.08,0.545 m -68.561,0.08 -1.77,0.5 -0.242,0.937 c -0.134,0.515 -0.245,1.122 -0.247,1.349 -0.003,0.364 -0.117,0.419 -0.988,0.469 l -0.985,0.056 -0.216,1.032 c -0.409,1.948 -0.376,2.063 0.592,2.063 0.464,0 0.843,0.051 0.843,0.115 0,0.063 -0.295,1.675 -0.656,3.581 -1.191,6.29 -0.731,7.714 2.556,7.9 2.898,0.164 2.99,0.097 3.267,-2.361 l 0.133,-1.172 h -0.956 c -1.522,0 -1.653,-0.65 -0.897,-4.428 0.246,-1.226 0.503,-2.545 0.572,-2.932 l 0.124,-0.703 h 1.586 c 0.872,0 1.585,-0.035 1.585,-0.078 0,-0.042 0.127,-0.738 0.281,-1.547 0.155,-0.808 0.282,-1.491 0.282,-1.517 0,-0.025 -0.675,-0.046 -1.501,-0.046 -1.71,0 -1.618,0.146 -1.219,-1.939 0.155,-0.809 0.282,-1.547 0.282,-1.641 0,-0.259 -0.49,-0.186 -2.426,0.362 m -89.83,3.434 c -6.672,2.112 -8.78,11.524 -3.148,14.058 1.207,0.543 4.744,0.619 6.046,0.129 l 0.75,-0.282 0.055,-1.552 0.055,-1.552 -0.524,0.123 c -3.378,0.795 -5.117,-0.091 -5.116,-2.608 0.001,-3.709 2.825,-6.074 6.297,-5.274 l 0.58,0.134 0.421,-1.368 c 0.231,-0.753 0.46,-1.464 0.507,-1.581 0.284,-0.702 -3.914,-0.863 -5.923,-0.227 m 12.047,-0.04 c -2.584,0.949 -4.674,3.302 -5.424,6.106 -0.561,2.095 -0.076,5.887 0.794,6.221 0.145,0.056 0.263,0.204 0.263,0.331 0,1.257 4.43,2.411 6.845,1.783 6.601,-1.718 8.906,-11.027 3.513,-14.188 -1.167,-0.683 -4.442,-0.822 -5.991,-0.253 m 19.318,0.031 c -0.593,0.227 -1.357,0.748 -1.947,1.325 l -0.971,0.951 0.133,-1.242 0.133,-1.241 h -1.851 -1.85 l -0.419,2.484 c -0.23,1.367 -0.673,3.835 -0.985,5.486 -0.312,1.65 -0.713,3.802 -0.892,4.782 l -0.325,1.781 2.063,-0.034 c 2.428,-0.039 2.062,0.472 2.916,-4.068 0.328,-1.74 0.712,-3.491 0.853,-3.891 0.141,-0.4 0.197,-0.728 0.124,-0.73 -0.073,-10e-4 -0.044,-0.065 0.065,-0.141 0.109,-0.075 0.391,-0.456 0.627,-0.845 0.631,-1.037 1.505,-1.637 2.381,-1.634 1.831,0.008 1.878,0.546 0.623,7.139 -0.404,2.123 -0.734,3.919 -0.734,3.991 0,0.072 0.946,0.108 2.102,0.079 l 2.102,-0.053 0.815,-4.032 c 1.374,-6.804 1.188,-9.165 -0.8,-10.127 -1.025,-0.496 -2.844,-0.488 -4.163,0.02 m 16.917,-0.112 c -0.411,0.146 -0.777,0.354 -0.812,0.46 -0.036,0.107 -0.161,0.195 -0.277,0.195 -0.117,0 -0.621,0.401 -1.119,0.89 l -0.906,0.891 0.129,-1.273 0.13,-1.273 -1.844,0.054 -1.844,0.054 -0.324,1.969 c -0.179,1.083 -0.753,4.228 -1.277,6.988 -0.524,2.76 -0.953,5.102 -0.953,5.204 0,0.371 4.087,0.232 4.195,-0.143 0.052,-0.18 0.354,-1.73 0.67,-3.443 1.036,-5.608 2.073,-7.484 4.136,-7.477 1.929,0.006 1.931,0.291 0.09,9.767 -0.153,0.784 -0.277,1.459 -0.278,1.5 0,0.041 0.956,0.049 2.124,0.017 l 2.123,-0.057 0.88,-4.631 c 1.205,-6.349 1.16,-7.827 -0.279,-9.165 -0.902,-0.839 -3.006,-1.082 -4.564,-0.527 m 13.875,0.064 c -1.096,0.374 -3.078,1.642 -3.242,2.074 -0.062,0.164 -0.294,0.441 -0.514,0.616 -1.865,1.476 -2.636,6.546 -1.379,9.063 1.317,2.635 5.412,3.662 9.495,2.381 1.52,-0.477 1.458,-0.357 1.242,-2.429 l -0.118,-1.13 -1.054,0.386 c -2.354,0.861 -5.034,0.465 -5.844,-0.862 -0.379,-0.622 -0.506,-1.552 -0.184,-1.354 1.171,0.725 6.943,-0.773 8.19,-2.125 3.367,-3.65 -1.368,-8.406 -6.592,-6.62 m 15.896,-0.058 c -6.637,1.787 -9.163,11.284 -3.747,14.084 0.299,0.155 0.667,0.234 0.817,0.176 0.151,-0.058 0.23,-0.032 0.175,0.057 -0.288,0.466 3.217,0.505 4.956,0.055 l 1.219,-0.315 0.054,-1.641 c 0.03,-0.902 0.019,-1.641 -0.023,-1.641 -0.043,0 -0.437,0.127 -0.875,0.282 -2.84,1.001 -4.792,-0.185 -4.771,-2.899 0.026,-3.359 2.646,-5.646 5.791,-5.056 0.695,0.131 0.962,0.115 1.073,-0.061 0.14,-0.225 0.907,-2.621 0.907,-2.835 0,-0.496 -3.955,-0.642 -5.576,-0.206 m 22.759,0.008 c -4.724,1.504 -7.909,9.352 -4.983,12.278 0.201,0.2 0.302,0.366 0.224,0.368 -0.315,0.006 1.232,1.196 2.016,1.549 1.705,0.769 6.106,0.572 7.91,-0.353 0.508,-0.26 0.58,-1.106 0.239,-2.812 l -0.078,-0.394 -1.082,0.38 c -2.267,0.797 -4.972,0.473 -5.731,-0.685 -0.398,-0.606 -0.5,-1.551 -0.161,-1.48 2.944,0.618 8.303,-1.383 8.835,-3.298 1.151,-4.145 -2.575,-7.023 -7.189,-5.553 m 37.404,0.186 c -5.632,1.918 -8.259,9.295 -4.581,12.86 0.345,0.334 0.627,0.549 0.627,0.477 0,-0.072 0.166,0.035 0.368,0.237 0.933,0.933 4.586,1.228 6.665,0.537 l 0.75,-0.249 0.054,-1.624 0.054,-1.624 -0.881,0.265 c -2.836,0.853 -4.786,-0.24 -4.809,-2.697 -0.032,-3.411 2.781,-5.933 5.876,-5.269 1.139,0.244 0.973,0.403 1.545,-1.47 l 0.472,-1.542 -0.687,-0.191 c -1.321,-0.367 -3.931,-0.228 -5.453,0.29 m 52.356,-0.194 c -4.898,1.319 -7.746,8.19 -5.114,12.339 0.311,0.491 0.652,0.841 0.757,0.776 0.104,-0.064 0.167,-0.013 0.138,0.115 -0.155,0.702 2.086,1.39 4.53,1.39 2.426,0 5.047,-0.567 5.095,-1.102 0.037,-0.403 -0.029,-1.528 -0.128,-2.194 l -0.1,-0.671 -1.067,0.376 c -2.968,1.043 -5.754,0.286 -6.141,-1.67 l -0.109,-0.553 2.018,-0.064 c 5.105,-0.161 7.528,-1.826 7.335,-5.04 -0.192,-3.187 -3.267,-4.765 -7.214,-3.702 m 17.244,0.142 c -0.556,0.232 -1.406,0.823 -1.941,1.351 l -0.953,0.937 0.135,-1.266 0.135,-1.265 h -1.871 -1.872 l -0.125,1.078 c -0.114,0.978 -1.415,8.094 -2.091,11.431 -0.422,2.088 -0.568,1.93 1.786,1.93 1.981,0 2.063,-0.016 2.158,-0.422 0.054,-0.232 0.385,-1.949 0.735,-3.816 0.436,-2.324 0.804,-3.744 1.166,-4.501 0.291,-0.608 0.503,-1.19 0.471,-1.294 -0.031,-0.103 -0.006,-0.136 0.056,-0.074 0.062,0.062 0.413,-0.17 0.779,-0.516 0.899,-0.848 2.087,-0.897 2.71,-0.113 0.533,0.672 0.453,1.643 -0.563,6.798 -0.416,2.115 -0.757,3.866 -0.757,3.891 0,0.026 0.954,0.047 2.121,0.047 h 2.12 l 0.887,-4.735 c 0.884,-4.722 1.037,-6.415 0.689,-7.629 -0.585,-2.04 -3.252,-2.886 -5.775,-1.832 m 13.179,-0.255 c -1.532,0.374 -2.992,1.487 -3.636,2.77 -0.602,1.199 -0.51,3.427 0.141,3.433 0.232,0.002 0.247,0.04 0.064,0.156 -0.321,0.204 1.097,1.52 2.335,2.167 1.487,0.776 1.785,1.086 1.807,1.882 0.045,1.567 -1.692,1.762 -5.213,0.586 -0.465,-0.155 -1.581,2.663 -1.162,2.938 1.14,0.748 5.27,1.077 7.006,0.559 3.948,-1.178 5.089,-5.457 2.058,-7.717 -1.043,-0.778 -2.181,-1.409 -2.181,-1.209 0,0.068 -0.254,-0.195 -0.563,-0.584 -1.328,-1.671 0.445,-2.687 3.317,-1.9 l 0.973,0.266 0.212,-0.589 c 0.905,-2.526 0.926,-2.373 -0.376,-2.745 -0.745,-0.212 -3.932,-0.221 -4.782,-0.013 m -73.671,0.153 c -0.048,0.078 -0.649,3.137 -1.335,6.798 -0.687,3.661 -1.295,6.849 -1.352,7.085 l -0.104,0.428 2.124,-0.053 2.123,-0.053 0.401,-2.063 c 0.221,-1.135 0.673,-3.498 1.005,-5.251 0.333,-1.754 0.767,-4.02 0.967,-5.037 0.199,-1.017 0.362,-1.882 0.362,-1.922 0,-0.14 -4.104,-0.073 -4.191,0.068 m 18.068,0.214 c 0,0.196 -0.174,1.272 -0.388,2.391 -1.17,6.136 -2.091,10.899 -2.178,11.271 -0.099,0.419 -0.084,0.422 2.04,0.422 h 2.14 l 1.273,-6.798 c 0.7,-3.738 1.316,-6.987 1.37,-7.22 0.096,-0.418 0.081,-0.421 -2.08,-0.421 -2.012,0 -2.177,0.026 -2.177,0.355 m 7.053,0.98 c -0.363,1.607 -0.377,2.037 -0.067,2.049 0.129,0.005 1.479,0.001 3,-0.008 1.521,-0.01 2.766,0.007 2.765,0.038 0,0.03 -1.646,1.734 -3.656,3.786 -2.011,2.053 -3.656,3.813 -3.656,3.911 0,0.099 -0.199,0.336 -0.442,0.527 -0.376,0.296 -0.871,1.799 -0.871,2.645 0,0.086 2.693,0.156 5.985,0.156 h 5.986 l 0.2,-0.933 c 0.11,-0.513 0.254,-1.273 0.321,-1.688 l 0.12,-0.754 h -3.414 -3.415 l 1.043,-0.954 c 3.501,-3.199 7.182,-7.392 7.319,-8.336 0.073,-0.512 0.179,-1.12 0.235,-1.353 l 0.1,-0.421 h -5.626 -5.625 l -0.302,1.335 m -107.262,1.714 c 1.401,0.617 0.656,2.151 -1.243,2.559 -0.983,0.21 -3.189,0.283 -3.189,0.105 0,-1.765 2.738,-3.41 4.432,-2.664 m 38.668,0.062 c 0.734,0.514 0.513,1.72 -0.402,2.193 -0.902,0.467 -4.067,0.711 -4.067,0.314 0,-1.817 3.028,-3.516 4.469,-2.507 m 16.215,0.114 c 0.196,0.101 0.299,0.305 0.247,0.49 -0.05,0.174 -0.229,1.034 -0.399,1.91 -0.377,1.953 -0.715,3.15 -1.098,3.891 -0.16,0.309 -0.231,0.629 -0.158,0.71 0.073,0.081 0.049,0.101 -0.054,0.044 -0.104,-0.058 -0.297,0.013 -0.43,0.157 -0.133,0.144 -0.175,0.265 -0.093,0.268 0.081,0.004 -0.19,0.169 -0.603,0.369 -0.902,0.436 -1.745,0.473 -2.277,0.1 -0.216,-0.151 -0.453,-0.214 -0.526,-0.14 -0.074,0.073 -0.11,0.049 -0.08,-0.054 0.029,-0.103 -0.059,-0.516 -0.196,-0.918 -1.265,-3.703 2.622,-8.385 5.667,-6.827 m 73.456,-0.037 c 1.349,1.349 -0.344,2.625 -3.481,2.625 h -1.213 l 0.294,-0.703 c 0.788,-1.891 3.323,-2.999 4.4,-1.922 m -178.063,-0.002 c 2.2,0.837 1.145,6.825 -1.441,8.176 -1.906,0.996 -3.255,-0.219 -3.227,-2.907 0.04,-3.809 2.174,-6.217 4.668,-5.269"
       inkscape:connector-curvature="0"
       style="fill:#838485;fill-rule:evenodd;stroke:none" />
    <path
       id="path3"
       d="m 270.667,66.378 c -4.702,1.12 -5.739,8.213 -1.524,10.418 2.314,1.209 6.028,-0.045 7.228,-2.441 2.207,-4.405 -1.127,-9.067 -5.704,-7.977"
       inkscape:connector-curvature="0"
       style="fill:#f27528;fill-rule:evenodd;stroke:none" />
    <path
       id="path4"
       d="m 240.557,65.209 c 0.337,0.041 0.843,0.04 1.125,-0.002 0.282,-0.043 0.006,-0.077 -0.613,-0.076 -0.619,0.001 -0.849,0.036 -0.512,0.078 m 29.875,1.019 c -0.993,0.286 -2.303,1.23 -2.903,2.094 -0.534,0.766 -0.526,0.763 0.375,-0.18 2.11,-2.209 5.292,-2.553 7.301,-0.789 0.365,0.32 0.708,0.538 0.763,0.483 0.174,-0.175 -1.179,-1.089 -2.166,-1.464 -1.017,-0.387 -2.329,-0.443 -3.37,-0.144 m 5.892,2.408 c 0.16,0.309 0.334,0.562 0.385,0.562 0.052,0 -0.037,-0.253 -0.197,-0.562 -0.16,-0.31 -0.333,-0.563 -0.385,-0.563 -0.051,0 0.037,0.253 0.197,0.563 m -9.724,1.361 c -0.725,1.898 -0.189,4.725 1.13,5.962 l 0.69,0.647 -0.66,-0.844 c -1.265,-1.62 -1.663,-3.913 -0.976,-5.63 0.168,-0.419 0.264,-0.802 0.215,-0.852 -0.05,-0.049 -0.229,0.273 -0.399,0.717 m 10.234,-0.33 c 0.002,0.206 0.068,0.628 0.147,0.938 0.128,0.505 0.143,0.515 0.146,0.094 0.002,-0.258 -0.064,-0.68 -0.146,-0.938 -0.118,-0.367 -0.15,-0.388 -0.147,-0.094 m 0.17,2.626 c -0.016,0.206 -0.072,0.586 -0.125,0.843 l -0.096,0.469 0.201,-0.46 c 0.11,-0.253 0.166,-0.633 0.124,-0.844 -0.074,-0.374 -0.077,-0.374 -0.104,-0.008 m -37.852,0.419 c 0.493,0.039 1.253,0.038 1.688,-0.001 0.435,-0.039 0.032,-0.071 -0.896,-0.071 -0.929,0.001 -1.285,0.033 -0.792,0.072 m 37.209,1.646 c -0.171,0.359 -0.273,0.654 -0.226,0.654 0.128,0 0.698,-1.149 0.612,-1.234 -0.041,-0.041 -0.214,0.22 -0.386,0.58 m -1.108,1.378 c -0.655,0.57 -1.622,1.115 -2.397,1.351 -0.324,0.099 -0.364,0.148 -0.13,0.159 0.522,0.025 2.295,-0.907 2.872,-1.509 0.665,-0.694 0.45,-0.694 -0.345,-10e-4 m -6.711,0.865 c 0,0.11 1.05,0.661 1.256,0.66 0.083,0 -0.126,-0.169 -0.464,-0.375 -0.627,-0.383 -0.792,-0.442 -0.792,-0.285 m 2.203,0.793 c 0.232,0.045 0.612,0.045 0.844,0 0.232,-0.044 0.043,-0.081 -0.422,-0.081 -0.464,0 -0.654,0.037 -0.422,0.081 m -59.972,0.946 -0.646,0.704 0.703,-0.647 c 0.387,-0.355 0.703,-0.672 0.703,-0.703 0,-0.143 -0.159,-0.008 -0.76,0.646 m 7.501,3.563 -0.646,0.704 0.703,-0.647 c 0.387,-0.355 0.703,-0.671 0.703,-0.703 0,-0.143 -0.158,-0.008 -0.76,0.646 M 76.746,84.712 c 0.387,0.041 1.02,0.041 1.407,0 0.387,-0.04 0.07,-0.073 -0.703,-0.073 -0.774,0 -1.09,0.033 -0.704,0.073 m 55.609,0.002 c 0.545,0.038 1.389,0.038 1.875,-0.001 0.487,-0.038 0.041,-0.069 -0.99,-0.069 -1.032,10e-4 -1.43,0.032 -0.885,0.07 m 166.24,0.799 c 0.066,0.243 0.903,0.282 6.062,0.286 l 5.985,0.004 -5.898,-0.054 c -4.416,-0.04 -5.939,-0.112 -6.062,-0.285 -0.12,-0.169 -0.143,-0.156 -0.087,0.049 m -142.571,0.319 c 3.97,0.133 7.459,0.138 7.379,0.01 -0.048,-0.078 -2.086,-0.124 -4.53,-0.103 -2.443,0.022 -3.725,0.063 -2.849,0.093 m 35.126,0.009 c 1.321,0.032 3.431,0.032 4.688,0 1.258,-0.033 0.177,-0.059 -2.402,-0.059 -2.578,0 -3.607,0.027 -2.286,0.059 m 75.762,0 c 1.217,0.033 3.158,0.033 4.313,0 1.154,-0.033 0.158,-0.06 -2.214,-0.06 -2.372,0 -3.317,0.027 -2.099,0.06 m 16.007,-0.015 c -0.069,0.069 -0.124,0.216 -0.122,0.328 0.002,0.124 0.06,0.113 0.149,-0.027 0.105,-0.165 1.149,-0.246 3.701,-0.286 l 3.555,-0.055 -3.579,-0.043 c -1.968,-0.023 -3.635,0.014 -3.704,0.083 m 31.192,0.016 c 0,0.077 1.329,0.118 2.954,0.092 5.602,-0.092 6.128,-0.156 1.594,-0.195 -2.501,-0.021 -4.548,0.025 -4.548,0.103 m 34.441,0 c -0.048,0.077 2.007,0.14 4.566,0.14 2.559,0 4.613,-0.063 4.565,-0.14 -0.048,-0.078 -2.102,-0.141 -4.565,-0.141 -2.464,0 -4.518,0.063 -4.566,0.141 m -66.88,6.469 c -0.003,0.303 0.277,0.325 3.607,0.286 l 3.61,-0.042 -3.461,-0.056 c -2.477,-0.04 -3.503,-0.121 -3.607,-0.286 -0.102,-0.16 -0.147,-0.131 -0.149,0.098 m 18.516,0.281 c 1.676,0.031 4.418,0.031 6.094,0 1.676,-0.031 0.305,-0.056 -3.047,-0.056 -3.352,0 -4.724,0.025 -3.047,0.056 M 92.683,105.204 c 0,0.361 0.039,0.509 0.086,0.328 0.047,-0.18 0.047,-0.476 0,-0.656 -0.047,-0.181 -0.086,-0.033 -0.086,0.328 m 116.474,1.594 c 10e-4,0.722 0.034,0.994 0.075,0.605 0.041,-0.389 0.04,-0.98 -0.001,-1.312 -0.042,-0.333 -0.075,-0.015 -0.074,0.707 m 82.495,16.784 c 0,0.361 0.038,0.508 0.085,0.328 0.048,-0.181 0.048,-0.476 0,-0.656 -0.047,-0.181 -0.085,-0.033 -0.085,0.328 m -76.65,0.375 c 0.403,0.412 0.775,0.75 0.827,0.75 0.051,0 -0.236,-0.338 -0.639,-0.75 -0.403,-0.413 -0.775,-0.75 -0.826,-0.75 -0.052,0 0.235,0.337 0.638,0.75 m 67.839,1.594 c 0.003,0.412 0.041,0.559 0.086,0.326 0.045,-0.233 0.043,-0.571 -0.004,-0.75 -0.047,-0.18 -0.084,0.011 -0.082,0.424 m -142.901,2.156 c 0,0.361 0.039,0.509 0.086,0.329 0.047,-0.181 0.047,-0.476 0,-0.657 -0.047,-0.18 -0.086,-0.033 -0.086,0.328 m 66.53,0.247 c 0,0.032 0.274,0.306 0.609,0.609 l 0.61,0.551 -0.551,-0.61 c -0.514,-0.568 -0.668,-0.695 -0.668,-0.55 m 21.05,1.383 c 0.18,0.047 0.476,0.047 0.656,0 0.181,-0.047 0.033,-0.086 -0.328,-0.086 -0.361,0 -0.509,0.039 -0.328,0.086 m 5.251,0 c 0.18,0.047 0.476,0.047 0.656,0 0.181,-0.047 0.033,-0.086 -0.328,-0.086 -0.361,0 -0.509,0.039 -0.328,0.086 M 297,129.528 c 0.232,0.044 0.611,0.044 0.843,0 0.232,-0.045 0.043,-0.082 -0.422,-0.082 -0.464,0 -0.654,0.037 -0.421,0.082 m 3.278,1.367 c 0,0.361 0.039,0.509 0.086,0.329 0.047,-0.181 0.047,-0.476 0,-0.657 -0.047,-0.18 -0.086,-0.033 -0.086,0.328 m -160.507,1.032 c 0.001,0.722 0.035,0.994 0.075,0.605 0.041,-0.389 0.04,-0.98 -0.001,-1.313 -0.042,-0.332 -0.075,-0.014 -0.074,0.708 m -36.161,1.219 c 0.508,0.516 0.966,0.937 1.017,0.937 0.052,0 -0.322,-0.421 -0.83,-0.937 -0.507,-0.516 -0.965,-0.938 -1.017,-0.938 -0.051,0 0.322,0.422 0.83,0.938 m 196.484,0.844 c 0.002,0.412 0.041,0.559 0.086,0.326 0.044,-0.234 0.043,-0.571 -0.004,-0.75 -0.047,-0.18 -0.084,0.011 -0.082,0.424 m -168.392,0.844 c 0,0.567 0.035,0.799 0.078,0.515 0.043,-0.283 0.043,-0.747 0,-1.031 -0.043,-0.284 -0.078,-0.052 -0.078,0.516 m 8.064,0 c 0,0.567 0.035,0.799 0.078,0.515 0.043,-0.283 0.043,-0.747 0,-1.031 -0.043,-0.284 -0.078,-0.052 -0.078,0.516 m 87.473,2.012 c 0.438,0.04 1.155,0.04 1.594,0 0.438,-0.039 0.079,-0.072 -0.797,-0.072 -0.877,0 -1.236,0.033 -0.797,0.072 m 65.631,-0.002 c 0.333,0.042 0.923,0.042 1.312,0.002 0.389,-0.041 0.117,-0.075 -0.605,-0.076 -0.722,0 -1.04,0.033 -0.707,0.074 m -124.656,5.866 c -0.221,0.309 -0.359,0.562 -0.307,0.562 0.052,0 0.274,-0.253 0.494,-0.562 0.221,-0.31 0.359,-0.563 0.307,-0.563 -0.051,0 -0.274,0.253 -0.494,0.563 m 149.263,0.891 -0.646,0.703 0.703,-0.646 c 0.655,-0.602 0.789,-0.761 0.646,-0.761 -0.031,0 -0.348,0.317 -0.703,0.704 m -160.808,1.031 -0.551,0.609 0.61,-0.55 c 0.568,-0.514 0.695,-0.668 0.55,-0.668 -0.032,0 -0.306,0.274 -0.609,0.609 m 167.276,3 -0.551,0.61 0.61,-0.551 c 0.568,-0.513 0.695,-0.668 0.551,-0.668 -0.033,0 -0.307,0.274 -0.61,0.609 m -160.9,1.313 -0.551,0.61 0.61,-0.551 c 0.335,-0.303 0.609,-0.577 0.609,-0.61 0,-0.145 -0.155,-0.017 -0.668,0.551 m 117.171,14.71 c 0.18,0.047 0.476,0.047 0.656,0 0.181,-0.047 0.033,-0.086 -0.328,-0.086 -0.361,0 -0.509,0.039 -0.328,0.086 m 18.19,0 c 0.18,0.047 0.476,0.047 0.656,0 0.181,-0.047 0.033,-0.086 -0.328,-0.086 -0.361,0 -0.508,0.039 -0.328,0.086 m -18.565,4.501 c 0.18,0.047 0.475,0.047 0.656,0 0.18,-0.048 0.033,-0.086 -0.328,-0.086 -0.361,0 -0.509,0.038 -0.328,0.086 m 18.19,0 c 0.18,0.047 0.476,0.047 0.656,0 0.181,-0.048 0.033,-0.086 -0.328,-0.086 -0.361,0 -0.509,0.038 -0.328,0.086 m -165.499,1.506 c 0.333,0.041 0.924,0.042 1.313,0.001 0.389,-0.04 0.117,-0.074 -0.605,-0.075 -0.722,-0.001 -1.041,0.032 -0.708,0.074 m 11.725,0.001 c 0.387,0.041 1.02,0.041 1.406,0 0.387,-0.04 0.071,-0.073 -0.703,-0.073 -0.773,0 -1.09,0.033 -0.703,0.073 m 19.13,-0.002 c 0.286,0.043 0.707,0.042 0.938,-0.003 0.231,-0.044 -0.002,-0.079 -0.518,-0.078 -0.516,0.002 -0.705,0.038 -0.42,0.081 m 16.688,0 c 0.284,0.043 0.748,0.043 1.031,0 0.284,-0.043 0.052,-0.078 -0.515,-0.078 -0.568,0 -0.8,0.035 -0.516,0.078 m 14.158,0.001 c 0.336,0.042 0.884,0.042 1.219,0 0.336,-0.041 0.061,-0.075 -0.609,-0.075 -0.67,0 -0.945,0.034 -0.61,0.075 m 15.936,0 c 0.333,0.041 0.924,0.042 1.313,0.001 0.389,-0.04 0.117,-0.074 -0.605,-0.075 -0.722,-0.001 -1.041,0.032 -0.708,0.074 m 22.699,0 c 0.337,0.042 0.843,0.041 1.125,-0.002 0.282,-0.042 0.006,-0.076 -0.613,-0.075 -0.619,0.001 -0.849,0.036 -0.512,0.077 m 15.37,0 c 0.333,0.041 0.923,0.042 1.312,0.001 0.39,-0.04 0.117,-0.074 -0.605,-0.075 -0.722,-0.001 -1.04,0.032 -0.707,0.074 m 22.691,0 c 0.333,0.041 0.923,0.042 1.312,0.001 0.39,-0.04 0.117,-0.074 -0.605,-0.075 -0.722,-0.001 -1.04,0.032 -0.707,0.074 m 51.578,0 c 0.337,0.042 0.843,0.041 1.125,-0.002 0.282,-0.042 0.006,-0.076 -0.613,-0.075 -0.619,0.001 -0.849,0.036 -0.512,0.077 m 17.346,-0.001 c 0.285,0.043 0.707,0.042 0.937,-0.003 0.231,-0.044 -0.002,-0.079 -0.518,-0.078 -0.516,0.002 -0.705,0.038 -0.419,0.081 m 12.843,0.003 c 0.438,0.039 1.155,0.039 1.594,0 0.438,-0.04 0.079,-0.072 -0.797,-0.072 -0.877,0 -1.236,0.032 -0.797,0.072 m -169.552,0.979 c 0.218,0.263 0.49,0.646 0.604,0.853 0.114,0.206 0.209,0.268 0.213,0.137 0.003,-0.13 -0.269,-0.514 -0.604,-0.852 -0.335,-0.339 -0.431,-0.401 -0.213,-0.138 m 159.285,-0.495 c 0,0.032 0.274,0.306 0.609,0.609 l 0.609,0.551 -0.55,-0.609 c -0.514,-0.569 -0.668,-0.696 -0.668,-0.551 m 6.985,0.314 c -0.847,0.516 -0.768,0.643 0.094,0.149 0.866,-0.496 0.901,-0.522 0.687,-0.521 -0.094,0 -0.446,0.168 -0.781,0.372 m -201.078,-0.149 c 1.199,1.116 1.908,1.667 1.312,1.02 -0.361,-0.392 -0.825,-0.801 -1.031,-0.91 -0.206,-0.108 -0.333,-0.158 -0.281,-0.11 m 49.711,0.198 c 0.043,0.026 0.331,0.258 0.64,0.516 l 0.563,0.469 -0.455,-0.516 c -0.25,-0.284 -0.538,-0.516 -0.64,-0.516 -0.103,0 -0.151,0.021 -0.108,0.047 m -21.775,0.803 c -0.563,0.58 -0.658,0.621 -0.774,0.328 -0.101,-0.257 -0.135,-0.215 -0.145,0.182 -0.017,0.654 -0.052,0.667 0.925,-0.328 0.455,-0.465 0.785,-0.844 0.732,-0.844 -0.053,0 -0.385,0.298 -0.738,0.662 m 51.803,0.191 c -0.427,0.366 -0.957,0.936 -1.176,1.266 l -0.399,0.6 0.537,-0.621 c 0.296,-0.341 0.874,-0.907 1.284,-1.259 0.41,-0.351 0.698,-0.641 0.639,-0.645 -0.059,-0.004 -0.457,0.293 -0.885,0.659 m -100.988,0.131 c -0.584,0.578 -0.587,0.586 -0.045,0.142 0.315,-0.257 0.652,-0.531 0.75,-0.609 0.098,-0.078 0.118,-0.142 0.044,-0.142 -0.074,0 -0.411,0.274 -0.749,0.609 m 138.396,0 c -0.584,0.578 -0.586,0.586 -0.044,0.142 0.314,-0.257 0.651,-0.531 0.749,-0.609 0.098,-0.078 0.118,-0.142 0.045,-0.142 -0.074,0 -0.411,0.274 -0.75,0.609 m -126.524,0.422 c -0.455,0.464 -0.786,0.844 -0.734,0.844 0.051,0 0.466,-0.38 0.922,-0.844 0.455,-0.464 0.786,-0.844 0.734,-0.844 -0.051,0 -0.466,0.38 -0.922,0.844 m 103.78,0.141 c -0.796,0.833 -1.852,2.115 -1.273,1.547 0.625,-0.614 2.366,-2.532 2.297,-2.532 -0.045,0 -0.505,0.443 -1.024,0.985 m 74.373,-0.141 c -0.455,0.464 -0.786,0.844 -0.734,0.844 0.051,0 0.466,-0.38 0.922,-0.844 0.455,-0.464 0.786,-0.844 0.734,-0.844 -0.052,0 -0.466,0.38 -0.922,0.844 m 18.028,-0.299 c -0.025,0.627 -0.018,0.632 0.35,0.299 0.425,-0.385 0.517,-0.632 0.108,-0.293 -0.216,0.179 -0.282,0.139 -0.349,-0.212 -0.06,-0.311 -0.09,-0.253 -0.109,0.206 m -131.118,0.534 -0.646,0.703 0.703,-0.646 c 0.654,-0.602 0.789,-0.761 0.646,-0.761 -0.031,0 -0.348,0.317 -0.703,0.704 m -15.634,0.38 -0.36,0.51 0.501,-0.454 c 0.526,-0.478 0.591,-0.581 0.36,-0.571 -0.077,0.003 -0.303,0.235 -0.501,0.515 m 26.73,0.182 c -0.02,0.377 0.066,0.422 0.808,0.422 0.633,0 0.851,0.078 0.916,0.328 0.065,0.247 0.091,0.224 0.108,-0.094 0.019,-0.377 -0.066,-0.421 -0.809,-0.421 -0.633,0 -0.85,-0.078 -0.916,-0.329 -0.064,-0.247 -0.091,-0.223 -0.107,0.094 m 48.921,0.092 c -0.548,0.825 -0.59,0.978 -0.117,0.424 0.418,-0.489 0.605,-0.844 0.446,-0.844 -0.027,0 -0.175,0.189 -0.329,0.42 m 79.948,0.611 c 10e-4,0.619 0.036,0.85 0.078,0.513 0.041,-0.337 0.041,-0.844 -0.002,-1.125 -0.043,-0.282 -0.077,-0.006 -0.076,0.612 m -159.777,0.094 c 0,0.567 0.035,0.799 0.078,0.516 0.043,-0.284 0.043,-0.748 0,-1.032 -0.043,-0.283 -0.078,-0.051 -0.078,0.516 m 65.574,-0.541 c 0.255,0.102 0.528,0.286 0.606,0.41 0.111,0.174 0.144,0.173 0.146,-0.003 0.003,-0.254 -0.588,-0.622 -0.969,-0.604 -0.136,0.006 -0.038,0.095 0.217,0.197 m 70.547,0.494 c -0.392,0.392 -0.451,0.486 -0.133,0.212 0.314,-0.27 0.74,-0.583 0.946,-0.697 0.206,-0.114 0.266,-0.209 0.133,-0.212 -0.133,-0.003 -0.558,0.31 -0.946,0.697 m -177.727,0.094 -0.551,0.609 0.656,-0.562 c 0.36,-0.31 0.691,-0.584 0.734,-0.61 0.044,-0.025 -0.003,-0.046 -0.104,-0.046 -0.101,0 -0.432,0.274 -0.735,0.609 m 19.65,-0.41 c 0.177,0.103 0.406,0.333 0.51,0.51 0.103,0.177 0.19,0.222 0.193,0.101 0.003,-0.122 -0.127,-0.354 -0.289,-0.516 -0.162,-0.162 -0.394,-0.292 -0.515,-0.289 -0.122,0.003 -0.076,0.09 0.101,0.194 m 33.467,0.414 c 0.083,0.535 0.024,0.81 -0.243,1.125 l -0.354,0.418 0.403,-0.34 c 0.531,-0.448 0.635,-0.907 0.331,-1.46 -0.232,-0.423 -0.24,-0.408 -0.137,0.257 m 26.179,-0.475 c 0.493,0.038 1.252,0.038 1.687,-0.001 0.436,-0.04 0.032,-0.071 -0.896,-0.071 -0.928,0.001 -1.284,0.033 -0.791,0.072 m 16.506,0.799 c 0,0.567 0.035,0.8 0.078,0.516 0.043,-0.284 0.043,-0.748 0,-1.032 -0.043,-0.283 -0.078,-0.051 -0.078,0.516 m 45.138,-0.833 c 0.71,0.155 1.688,0.181 1.688,0.045 0,-0.082 -0.443,-0.14 -0.984,-0.128 -0.542,0.012 -0.858,0.05 -0.704,0.083 m 6.616,0.034 c 0.493,0.038 1.253,0.038 1.688,-0.001 0.435,-0.04 0.032,-0.071 -0.896,-0.071 -0.929,0.001 -1.285,0.033 -0.792,0.072 m -81.674,0.344 c -0.727,0.394 -0.645,0.53 0.093,0.155 0.707,-0.36 0.832,-0.453 0.594,-0.442 -0.094,0.004 -0.404,0.133 -0.687,0.287 m 21.952,0.221 c -0.546,0.585 -0.978,1.346 -0.841,1.483 0.051,0.051 0.149,-0.089 0.22,-0.309 0.07,-0.221 0.381,-0.692 0.692,-1.046 0.673,-0.766 0.617,-0.866 -0.071,-0.128 m 75.019,-0.376 c 2.515,0.054 2.674,0.079 2.438,0.381 -0.229,0.292 -0.221,0.298 0.075,0.066 0.646,-0.507 0.29,-0.586 -2.438,-0.546 l -2.766,0.042 2.691,0.057 m 6.31,1.173 c -0.716,0.722 -1.22,1.302 -1.12,1.29 0.182,-0.023 2.667,-2.603 2.507,-2.603 -0.046,0 -0.67,0.591 -1.387,1.313 m 16.273,-0.563 c 0,0.464 0.036,0.654 0.081,0.422 0.045,-0.232 0.045,-0.612 0,-0.844 -0.045,-0.232 -0.081,-0.042 -0.081,0.422 m -190.684,0.205 c -0.165,0.319 -0.266,0.613 -0.226,0.654 0.041,0.041 0.215,-0.22 0.386,-0.58 0.386,-0.809 0.252,-0.87 -0.16,-0.074 m 209.62,0.264 c 0.003,0.413 0.041,0.559 0.086,0.326 0.045,-0.233 0.043,-0.571 -0.004,-0.75 -0.047,-0.179 -0.084,0.011 -0.082,0.424 m -167.267,0.469 c 0,0.567 0.035,0.799 0.078,0.516 0.043,-0.284 0.043,-0.748 0,-1.032 -0.043,-0.284 -0.078,-0.051 -0.078,0.516 m 159.775,0 c 0,0.567 0.035,0.799 0.078,0.516 0.043,-0.284 0.043,-0.748 0,-1.032 -0.043,-0.284 -0.078,-0.051 -0.078,0.516 m -137.243,-0.17 c -0.165,0.319 -0.266,0.613 -0.226,0.654 0.041,0.04 0.215,-0.221 0.386,-0.58 0.386,-0.809 0.252,-0.871 -0.16,-0.074 m 5.039,-0.158 c -0.208,0.232 -0.447,0.548 -0.529,0.703 -0.158,0.298 -0.115,0.258 0.645,-0.61 0.249,-0.283 0.41,-0.515 0.358,-0.515 -0.051,0 -0.265,0.19 -0.474,0.422 m 98.393,1.172 c -0.769,0.773 -1.355,1.406 -1.304,1.406 0.052,0 0.723,-0.633 1.491,-1.406 0.769,-0.774 1.355,-1.407 1.304,-1.407 -0.052,0 -0.723,0.633 -1.491,1.407 m -154.468,-0.094 c 0,0.567 0.035,0.799 0.078,0.516 0.043,-0.284 0.043,-0.748 0,-1.032 -0.043,-0.283 -0.078,-0.051 -0.078,0.516 m 202.569,0.319 c 0.103,0.097 0.567,0.453 1.031,0.79 l 0.844,0.613 -0.656,-0.593 c -0.575,-0.519 -1.708,-1.273 -1.219,-0.81 M 308,178.522 c -1.351,1.334 -2.321,2.351 -2.157,2.259 0.324,-0.179 4.852,-4.693 4.703,-4.687 -0.05,0.002 -1.196,1.095 -2.546,2.428 m -70.693,-1.635 -0.551,0.609 0.609,-0.55 c 0.568,-0.514 0.696,-0.668 0.551,-0.668 -0.032,0 -0.307,0.274 -0.609,0.609 m 110.372,-0.176 c 0,0.033 0.275,0.307 0.61,0.61 l 0.609,0.551 -0.551,-0.61 c -0.513,-0.568 -0.668,-0.696 -0.668,-0.551 m -211.284,1.911 c 10e-4,0.722 0.035,0.994 0.076,0.605 0.04,-0.389 0.04,-0.98 -0.002,-1.313 -0.041,-0.333 -0.074,-0.014 -0.074,0.708 m 65.075,0.093 c 0,0.774 0.033,1.09 0.073,0.704 0.041,-0.387 0.041,-1.02 0,-1.407 -0.04,-0.387 -0.073,-0.07 -0.073,0.703 m 113.078,-0.093 c 10e-4,0.722 0.035,0.994 0.075,0.605 0.041,-0.389 0.04,-0.98 -10e-4,-1.313 -0.041,-0.333 -0.075,-0.014 -0.074,0.708 m -89.647,0 c 0.002,0.515 0.038,0.704 0.081,0.419 0.043,-0.285 0.042,-0.707 -0.002,-0.938 -0.045,-0.23 -0.08,0.003 -0.079,0.519 m 15.011,0.562 c 0,0.722 0.034,0.995 0.075,0.606 0.04,-0.39 0.04,-0.98 -0.002,-1.313 -0.041,-0.333 -0.074,-0.015 -0.073,0.707 m -47.457,-0.334 c 0.285,0.043 0.707,0.042 0.937,-0.003 0.231,-0.044 -0.002,-0.079 -0.518,-0.078 -0.516,0.001 -0.705,0.038 -0.419,0.081 m 38.631,0 c 0.285,0.043 0.707,0.042 0.937,-0.003 0.231,-0.044 -0.002,-0.079 -0.518,-0.078 -0.516,0.001 -0.704,0.038 -0.419,0.081 m 71.024,0.709 c -0.456,0.464 -0.786,0.844 -0.735,0.844 0.052,0 0.467,-0.38 0.922,-0.844 0.456,-0.464 0.786,-0.844 0.735,-0.844 -0.052,0 -0.467,0.38 -0.922,0.844 m 18.427,-0.709 c 0.285,0.043 0.707,0.042 0.938,-0.003 0.23,-0.044 -0.003,-0.079 -0.519,-0.078 -0.515,0.001 -0.704,0.038 -0.419,0.081 m -192.251,0.428 c -0.016,0.303 0.656,1.5 0.84,1.5 0.062,0 -0.053,-0.274 -0.255,-0.609 -0.201,-0.335 -0.413,-0.736 -0.469,-0.891 -0.091,-0.25 -0.104,-0.25 -0.116,0 m 190.685,0.906 c 0.101,0.189 0.331,0.463 0.511,0.61 0.202,0.164 0.157,0.033 -0.119,-0.344 -0.493,-0.673 -0.677,-0.798 -0.392,-0.266 m -103.442,1.251 c 0.001,0.618 0.036,0.849 0.078,0.512 0.042,-0.337 0.041,-0.843 -0.002,-1.125 -0.043,-0.282 -0.077,-0.006 -0.076,0.613 m -81.852,-0.493 c 0.183,0.116 0.233,0.564 0.187,1.686 -0.034,0.839 0.001,1.526 0.079,1.526 0.077,0 0.14,-0.76 0.14,-1.688 0,-1.483 -0.039,-1.687 -0.328,-1.685 -0.25,0.002 -0.269,0.04 -0.078,0.161 m 217.641,0.239 c -0.355,0.4 -0.355,0.401 0.065,0.181 0.232,-0.122 0.422,-0.303 0.422,-0.403 0,-0.266 -0.09,-0.225 -0.487,0.222 m -157.831,0.296 c 0.337,0.041 0.843,0.041 1.125,-0.002 0.282,-0.043 0.006,-0.077 -0.613,-0.076 -0.619,0.001 -0.849,0.036 -0.512,0.078 m 38.443,0 c 0.337,0.041 0.844,0.041 1.125,-0.002 0.282,-0.043 0.006,-0.077 -0.612,-0.076 -0.619,0.001 -0.85,0.036 -0.513,0.078 m 89.639,0 c 0.337,0.041 0.844,0.041 1.125,-0.002 0.282,-0.043 0.006,-0.077 -0.612,-0.076 -0.619,0.001 -0.85,0.036 -0.513,0.078 m -49.279,1.309 c -0.05,0.743 -0.024,1.283 0.059,1.2 0.083,-0.084 0.124,-0.692 0.092,-1.352 l -0.059,-1.199 -0.092,1.351 m 77.407,-1.125 c 0.234,0.045 0.571,0.043 0.751,-0.004 0.179,-0.047 -0.012,-0.083 -0.425,-0.081 -0.412,0.002 -0.559,0.04 -0.326,0.085 m -201.184,0.758 -0.646,0.703 0.703,-0.646 c 0.655,-0.601 0.79,-0.76 0.646,-0.76 -0.031,0 -0.347,0.316 -0.703,0.703 m 38.716,-0.234 c 0.37,0.78 1.928,2.156 2.442,2.156 0.1,0 -0.199,-0.241 -0.665,-0.537 -0.777,-0.492 -1.159,-0.881 -1.808,-1.833 -0.136,-0.201 -0.123,-0.11 0.031,0.214 m 49.289,0.281 c 0,0.361 0.039,0.509 0.086,0.328 0.047,-0.18 0.047,-0.476 0,-0.656 -0.047,-0.181 -0.086,-0.033 -0.086,0.328 m -111.851,-0.094 c 0.106,0.207 0.433,0.586 0.726,0.843 l 0.533,0.469 -0.561,-0.656 c -0.889,-1.039 -0.902,-1.051 -0.698,-0.656 m 115.746,-0.177 c 0,0.179 0.947,1.584 1.068,1.584 0.089,0 -0.025,-0.197 -0.638,-1.105 -0.237,-0.349 -0.43,-0.565 -0.43,-0.479 m 7.98,0.822 -0.74,0.855 0.825,-0.79 c 0.453,-0.435 0.786,-0.82 0.739,-0.856 -0.046,-0.036 -0.417,0.32 -0.824,0.791 m 15.18,-0.019 c 0.309,0.344 0.731,0.713 0.937,0.82 0.206,0.107 0.291,0.12 0.188,0.03 -0.104,-0.09 -0.525,-0.459 -0.938,-0.82 l -0.749,-0.656 0.562,0.626 m 91.584,-0.219 c -0.142,0.173 -0.633,0.552 -1.092,0.844 -0.458,0.292 -0.745,0.531 -0.637,0.531 0.242,0 1.566,-0.95 1.916,-1.375 0.142,-0.172 0.215,-0.313 0.164,-0.313 -0.052,0 -0.21,0.141 -0.351,0.313 m -207.995,0.609 c -0.77,0.494 -0.877,0.668 -0.198,0.322 0.329,-0.167 0.65,-0.389 0.715,-0.493 0.15,-0.243 0.105,-0.228 -0.517,0.171 m 5.359,0.672 c 0.036,0.347 0.18,0.376 1.959,0.385 l 1.92,0.011 -1.863,-0.064 c -1.564,-0.053 -1.878,-0.115 -1.959,-0.385 -0.071,-0.24 -0.085,-0.227 -0.057,0.053 m 16.645,0.147 c -0.019,0.427 4.324,0.416 4.41,-0.011 0.026,-0.132 0.005,-0.153 -0.047,-0.047 -0.146,0.293 -4.134,0.253 -4.253,-0.042 -0.056,-0.138 -0.101,-0.097 -0.11,0.1 m 159.775,0 c -0.019,0.427 4.324,0.416 4.41,-0.011 0.026,-0.132 0.005,-0.153 -0.047,-0.047 -0.146,0.293 -4.134,0.253 -4.253,-0.042 -0.056,-0.138 -0.101,-0.097 -0.11,0.1 m -167.666,0.181 c 0,0.078 1.013,0.141 2.251,0.141 1.237,0 2.25,-0.063 2.25,-0.141 0,-0.077 -1.013,-0.14 -2.25,-0.14 -1.238,0 -2.251,0.063 -2.251,0.14 m 113.268,0 c 0,0.078 1.013,0.141 2.25,0.141 1.238,0 2.251,-0.063 2.251,-0.141 0,-0.077 -1.013,-0.14 -2.251,-0.14 -1.237,0 -2.25,0.063 -2.25,0.14 m 24.941,0 c 0,0.078 2.764,0.123 6.142,0.101 6.116,-0.041 5.425,-0.103 -2.157,-0.194 -2.192,-0.026 -3.985,0.016 -3.985,0.093 m -120.159,0.092 c 0.593,0.037 1.563,0.037 2.156,0 0.594,-0.037 0.108,-0.068 -1.078,-0.068 -1.186,0 -1.671,0.031 -1.078,0.068 m 70.605,0 c 0.541,0.037 1.427,0.037 1.969,0 0.541,-0.038 0.098,-0.069 -0.985,-0.069 -1.083,0 -1.526,0.031 -0.984,0.069 m 44.076,0 c 0.649,0.037 1.662,0.037 2.251,0 0.589,-0.037 0.058,-0.067 -1.18,-0.067 -1.237,0 -1.719,0.031 -1.071,0.067 m 45.007,0 c 0.649,0.037 1.662,0.037 2.251,0 0.589,-0.037 0.058,-0.067 -1.18,-0.067 -1.237,0 -1.719,0.031 -1.071,0.067 m -196.816,0.371 c 0.285,0.043 0.707,0.042 0.937,-0.003 0.231,-0.044 -0.002,-0.079 -0.518,-0.078 -0.516,10e-4 -0.704,0.038 -0.419,0.081 m 50.067,0 c 0.284,0.043 0.748,0.043 1.032,0 0.283,-0.043 0.051,-0.078 -0.516,-0.078 -0.567,0 -0.799,0.035 -0.516,0.078 m 26.82,0 c 0.285,0.043 0.707,0.042 0.937,-0.003 0.231,-0.044 -0.002,-0.079 -0.518,-0.078 -0.516,10e-4 -0.704,0.038 -0.419,0.081 m 11.811,0 c 0.284,0.043 0.748,0.043 1.032,0 0.284,-0.043 0.051,-0.078 -0.516,-0.078 -0.567,0 -0.799,0.035 -0.516,0.078 m 13.223,-0.002 c 0.234,0.045 0.571,0.043 0.751,-0.004 0.179,-0.047 -0.012,-0.083 -0.425,-0.081 -0.412,0.002 -0.559,0.04 -0.326,0.085 m 43.039,0.002 c 0.285,0.043 0.707,0.042 0.937,-0.003 0.231,-0.044 -0.002,-0.079 -0.518,-0.078 -0.516,10e-4 -0.704,0.038 -0.419,0.081 m 33.19,0 c 0.284,0.043 0.748,0.043 1.031,0 0.284,-0.043 0.052,-0.078 -0.515,-0.078 -0.568,0 -0.8,0.035 -0.516,0.078"
       inkscape:connector-curvature="0"
       style="fill:#aaa7a7;fill-rule:evenodd;stroke:none" />
  </g>
</svg>
